<?xml version="1.0" standalone="no"?>
<!DOCTYPE svg PUBLIC "-//W3C//DTD SVG 20010904//EN"
 "http://www.w3.org/TR/2001/REC-SVG-20010904/DTD/svg10.dtd">
<svg version="1.0" xmlns="http://www.w3.org/2000/svg"
 width="700.000000pt" height="700.000000pt" viewBox="0 0 700.000000 700.000000"
 preserveAspectRatio="xMidYMid meet">
<metadata>
Created by potrace 1.11, written by Peter Selinger 2001-2013
</metadata>
<g transform="translate(0.000000,700.000000) scale(0.100000,-0.100000)"
fill="#000000" stroke="none">
<path d="M3377 5904 c-1 -1 -36 -5 -77 -8 -342 -26 -705 -163 -990 -371 -290
-212 -542 -527 -680 -850 -19 -44 -39 -85 -44 -91 -6 -6 -60 -21 -121 -33
-585 -119 -1062 -465 -1293 -936 -85 -174 -139 -361 -160 -555 -9 -80 -8 -380
1 -435 3 -22 9 -58 12 -80 3 -22 8 -46 11 -54 2 -8 7 -30 10 -50 3 -20 21 -83
40 -141 217 -663 825 -1124 1579 -1197 101 -9 3842 -10 3950 0 284 25 531 100
755 228 119 68 299 233 381 349 102 144 189 346 215 500 3 14 6 30 9 37 11 32
20 173 19 313 0 131 -6 198 -30 310 -29 140 -120 340 -212 465 -101 139 -268
291 -398 366 -226 129 -380 187 -635 239 l-56 11 -13 72 c-31 180 -104 422
-177 587 -55 124 -154 306 -199 366 -13 17 -24 36 -24 42 0 6 -3 12 -7 14 -5
2 -35 39 -68 83 -84 112 -281 307 -402 397 -152 114 -328 214 -468 267 -33 13
-69 27 -80 31 -31 13 -140 49 -166 54 -13 3 -42 10 -64 16 -58 14 -200 38
-275 46 -61 6 -338 13 -343 8z m341 -450 c613 -81 1096 -459 1360 -1064 71
-161 129 -381 162 -609 21 -147 33 -178 85 -224 43 -39 83 -53 190 -62 112
-11 172 -22 275 -52 331 -95 583 -291 692 -538 81 -183 102 -421 56 -635 -6
-30 -12 -57 -13 -60 -5 -24 -42 -123 -58 -155 -116 -233 -327 -392 -622 -470
-49 -13 -112 -27 -140 -31 -27 -3 -59 -9 -70 -13 -31 -9 -3894 -11 -3950 -2
-27 5 -70 12 -95 15 -25 3 -90 17 -144 31 -392 102 -708 348 -875 682 -127
255 -164 560 -104 863 87 443 403 777 888 938 66 22 134 43 150 45 17 3 66 12
110 21 44 8 104 18 134 21 67 8 96 19 138 51 40 30 52 54 98 180 124 343 367
652 659 839 149 95 364 182 521 209 17 3 41 8 55 11 14 3 54 8 90 12 36 3 66
6 68 8 9 8 254 1 340 -11z"/>
</g>
</svg>
